<?xml version="1.0" encoding="UTF-8" standalone="no"?><svg xmlns="http://www.w3.org/2000/svg" xmlns:xlink="http://www.w3.org/1999/xlink" contentScriptType="text/ecmascript" fill="#02cdff" width="58" zoomAndPan="magnify" contentStyleType="text/css" viewBox="3.0 3.0 58.0 58.0" height="58" data-name="Layer 2" preserveAspectRatio="xMidYMid meet" version="1"><g id="change1_1"><path d="M44.73,37.63a1.82,1.82,0,0,0-2.57,0L41,38.76a5.57,5.57,0,0,1-.59.5l6.2,6.2,1.67-1.68a1.82,1.82,0,0,0,0-2.57Z"/></g><g id="change1_2"><path d="M37.24,40.33a5.33,5.33,0,0,1-3.79-1.57l-8.21-8.21a5.34,5.34,0,0,1-1.39-5.14l-6.62-6.62A9.68,9.68,0,0,0,18,31.6L32.4,46a9.68,9.68,0,0,0,12.82.76L38.6,40.15A5.13,5.13,0,0,1,37.24,40.33Z"/></g><g id="change1_3"><path d="M25.24,23l1.13-1.13a1.82,1.82,0,0,0,0-2.57l-3.58-3.58a1.8,1.8,0,0,0-2.57,0l-1.67,1.68,6.19,6.19A5.57,5.57,0,0,1,25.24,23Z"/></g><g id="change1_4"><path d="M32,3A29,29,0,1,0,61,32,29,29,0,0,0,32,3ZM49.68,45.15l-2.23,2.23-.13.13A11.63,11.63,0,0,1,31,47.38L16.62,33a11.62,11.62,0,0,1-.16-16.24l0,0,0,0,.1-.11,2.23-2.23a3.84,3.84,0,0,1,5.31,0l3.58,3.58a3.77,3.77,0,0,1,0,5.31l-1.13,1.13a3.43,3.43,0,0,0-.72,1.06,3.39,3.39,0,0,0,.72,3.78l8.21,8.21a3.49,3.49,0,0,0,3.77.71,3.28,3.28,0,0,0,1.07-.71l1.13-1.13a3.77,3.77,0,0,1,5.31,0l3.58,3.58A3.77,3.77,0,0,1,49.68,45.15Z"/></g></svg>